<svg width="14" height="12" viewBox="0 0 14 12" fill="none" xmlns="http://www.w3.org/2000/svg">
<path d="M1.43225 0.0370693C0.741606 0.18562 0.193958 0.74041 0.0479192 1.43163C-0.0159731 1.73782 -0.0159731 3.79328 0.0479192 4.09947C0.184831 4.75127 0.711181 5.3 1.35619 5.46371C1.48397 5.49706 1.6939 5.50919 2.07726 5.50919H2.61882L2.61273 4.68761L2.60361 3.863L2.47582 3.82662C2.1807 3.73871 1.88558 3.48708 1.7578 3.2112C1.70607 3.096 1.6939 3.00808 1.69086 2.76555C1.69086 2.48967 1.69999 2.44723 1.77909 2.28352C1.94947 1.93488 2.25981 1.71357 2.65837 1.65597C2.90786 1.61959 11.0952 1.62262 11.3477 1.659C11.7341 1.71357 12.0718 1.9561 12.23 2.29564C12.3 2.44116 12.3091 2.5018 12.3091 2.76555C12.3091 3.01111 12.297 3.096 12.2422 3.2112C12.1175 3.48405 11.8193 3.73871 11.5242 3.82662L11.3964 3.863L11.3873 4.68761L11.3812 5.50919H11.9227C12.3061 5.50919 12.516 5.49706 12.6438 5.46371C13.2919 5.29697 13.8152 4.75431 13.9521 4.09947C14.016 3.79328 14.016 1.73782 13.9521 1.43163C13.8213 0.801044 13.3831 0.309917 12.7594 0.0916386L12.5221 0.00675249L7.07606 0.000689507C2.50016 -0.00234222 1.59959 0.00372124 1.43225 0.0370693Z" fill="#2F4050"/>
<path d="M2.5245 2.33552C2.46973 2.37189 2.39063 2.45072 2.35108 2.50832C2.29023 2.59624 2.2811 2.64171 2.29023 2.79026C2.31457 3.12677 2.51537 3.26623 2.97479 3.26623H3.25774L3.26382 7.19827L3.27295 11.1333L3.36727 11.3304C3.52852 11.6639 3.80843 11.8882 4.1644 11.964C4.38954 12.0125 9.61045 12.0125 9.83559 11.964C10.1916 11.8882 10.4715 11.6639 10.6327 11.3304L10.727 11.1333L10.7362 7.19827L10.7423 3.26623H11.0252C11.4846 3.26623 11.6854 3.12677 11.7098 2.79026C11.7189 2.64171 11.7098 2.59624 11.6489 2.50832C11.6094 2.45072 11.5303 2.37189 11.4755 2.33552L11.372 2.26579H7H2.62794L2.5245 2.33552ZM7.16125 4.43038C7.32554 4.50011 7.4229 4.63047 7.46245 4.83359L7.49592 5.01549L7.71498 5.03368C7.97055 5.05187 8.09225 5.10644 8.19265 5.24286C8.29001 5.38232 8.29001 5.63698 8.19265 5.77643C8.06487 5.9553 7.98272 5.97652 7.42594 5.98865C7.14908 5.99168 6.89351 6.0038 6.85396 6.0129C6.76268 6.03109 6.66532 6.1948 6.66532 6.33122C6.66532 6.53737 6.80832 6.64348 7.12169 6.67077C7.79408 6.7314 8.31739 7.34076 8.27175 8.00469C8.24133 8.42306 8.04357 8.75957 7.69977 8.98997L7.50201 9.12337L7.47767 9.32346C7.43811 9.663 7.27382 9.8449 7.00304 9.8449C6.74138 9.8449 6.56492 9.66906 6.52537 9.36893L6.50711 9.20825H6.29414C6.03553 9.20825 5.8834 9.13549 5.78604 8.96572C5.66434 8.74744 5.72519 8.50794 5.94425 8.34727C6.02336 8.28966 6.08421 8.2836 6.59534 8.26844L7.1582 8.25328L7.24644 8.15324C7.37726 8.01075 7.37118 7.84401 7.23122 7.70456C7.14908 7.6227 7.10344 7.60148 7.00912 7.60148C6.84483 7.60148 6.55883 7.52266 6.38846 7.42868C6.21503 7.3347 5.98989 7.11945 5.89253 6.94968C5.54569 6.36154 5.75866 5.57634 6.35803 5.22164C6.49494 5.13979 6.5132 5.11856 6.5132 5.02458C6.51624 4.73355 6.63185 4.52133 6.83266 4.43038C6.95132 4.37884 7.03955 4.37884 7.16125 4.43038Z" fill="#2F4050"/>
</svg>
