<svg width="12" height="12" viewBox="0 0 12 12" fill="none" xmlns="http://www.w3.org/2000/svg">
<path d="M3.06797 1.76016C1.51641 2.73047 0.210938 3.55547 0.166406 3.59531C0.0539063 3.70078 0 3.82734 0 4.00312C0 4.2375 0.126563 4.42969 0.351562 4.53281L0.457031 4.58203H6H11.543L11.6484 4.53281C11.8734 4.42969 12 4.2375 12 4.00312C12 3.82734 11.9461 3.70078 11.8336 3.59531C11.7891 3.55547 10.4836 2.73047 8.93203 1.76016C6.22031 0.0679684 6.10781 0 6 0C5.89219 0 5.77969 0.0679684 3.06797 1.76016ZM6.27422 1.77656C6.825 1.96875 7.01484 2.65312 6.64453 3.10547C6.46406 3.32812 6.14297 3.45234 5.87813 3.40312C5.5875 3.34922 5.36953 3.1875 5.24531 2.93437C5.175 2.79141 5.16797 2.75859 5.16797 2.56641C5.17031 2.38594 5.17969 2.33672 5.23359 2.22656C5.42578 1.83047 5.87109 1.63828 6.27422 1.77656Z" fill="#2F4050"/>
<path d="M5.76555 2.04219C5.42102 2.19688 5.31321 2.60234 5.53118 2.91641C5.74211 3.22578 6.25774 3.22578 6.46868 2.91641C6.74524 2.51797 6.47805 1.99297 5.99993 1.99297C5.92024 1.99297 5.83118 2.01172 5.76555 2.04219Z" fill="#2F4050"/>
<path d="M1.13903 4.96172C1.18121 5.26172 1.35465 5.50781 1.61012 5.63203L1.7109 5.68125V7.42734V9.17578L1.57965 9.24375C1.34528 9.36797 1.17887 9.60937 1.13903 9.89531L1.12262 10.0078H2.56403H4.00778V9.93984C4.00778 9.90234 3.98668 9.80156 3.9609 9.71719C3.9234 9.59766 3.88356 9.53203 3.78278 9.42422C3.71246 9.34687 3.60699 9.2625 3.55074 9.23437L3.44528 9.18281V7.42734V5.67188L3.55778 5.61562C3.78512 5.49844 3.97028 5.23125 4.00074 4.97109L4.01481 4.85156H2.56871H1.12262L1.13903 4.96172Z" fill="#2F4050"/>
<path d="M4.57493 4.97812C4.59602 5.22891 4.78352 5.49844 5.02493 5.625L5.13274 5.68359V7.43203V9.18047L5.0343 9.225C4.80461 9.32812 4.59602 9.62812 4.57493 9.88359L4.56555 10.0078H5.99993H7.4343L7.42493 9.88359C7.40383 9.62812 7.19524 9.32812 6.96555 9.225L6.86711 9.18047V7.42734V5.67656L6.97258 5.625C7.20461 5.5125 7.40383 5.22656 7.42493 4.97812L7.4343 4.85156H5.99993H4.56555L4.57493 4.97812Z" fill="#2F4050"/>
<path d="M7.99929 4.97109C8.02976 5.23125 8.21492 5.49844 8.4446 5.61562L8.55476 5.67188V7.42969V9.1875L8.47273 9.22031C8.34851 9.27422 8.14929 9.47578 8.07664 9.62344C8.04148 9.69609 8.00632 9.81094 7.99929 9.88125L7.98523 10.0078H9.43132H10.8774L10.861 9.89766C10.8165 9.59062 10.6477 9.35391 10.3899 9.22734L10.2891 9.17812V7.42969V5.68125L10.3899 5.63203C10.6477 5.50547 10.8165 5.26875 10.861 4.96172L10.8774 4.85156H9.43132H7.98523L7.99929 4.97109Z" fill="#2F4050"/>
<path d="M0.696094 10.2984C0.54375 10.3406 0.424219 10.4414 0.346875 10.5938C0.283594 10.718 0.28125 10.7273 0.28125 11.1375C0.28125 11.5875 0.292969 11.6508 0.414844 11.8078C0.447656 11.8523 0.529688 11.9133 0.595313 11.9438L0.714844 12H6H11.2852L11.4047 11.9438C11.4703 11.9133 11.5523 11.8523 11.5852 11.8078C11.707 11.6508 11.7188 11.5875 11.7188 11.1375C11.7188 10.7273 11.7164 10.7156 11.6555 10.5914C11.5758 10.4367 11.4352 10.3266 11.2734 10.2914C11.0859 10.2516 0.846094 10.2586 0.696094 10.2984Z" fill="#2F4050"/>
</svg>
