<svg width="14" height="11" viewBox="0 0 14 11" fill="none" xmlns="http://www.w3.org/2000/svg">
<path d="M3.53961 0.0584154C3.07785 0.190988 2.55623 0.544512 2.2997 0.898036C2.10302 1.17202 1.99613 1.39297 1.70112 2.14863L1.47451 2.72753L1.27784 2.66566C0.627949 2.46238 0.0977786 2.74078 0.00799157 3.33736C-0.0475909 3.72623 0.191841 4.16814 0.568091 4.37142L0.78187 4.48631L0.70491 4.75145C0.568091 5.21104 0.418446 6.01972 0.375691 6.56327C0.320108 7.27915 0.320108 9.72289 0.379966 10.0499C0.448375 10.4299 0.636501 10.7083 0.952893 10.8807C1.10254 10.9646 1.19232 10.9779 1.65836 10.9779C2.1244 10.9779 2.21419 10.9646 2.36383 10.8807C2.77429 10.6553 2.93676 10.3239 2.94103 9.72731V9.32076H6.97717H11.009L11.0304 9.73173C11.0646 10.3637 11.2399 10.6774 11.6846 10.8939C11.8642 10.9823 11.9668 11 12.3088 11C12.963 11 13.3007 10.8277 13.5188 10.3725L13.63 10.1427V8.31763C13.63 6.92563 13.6129 6.3865 13.5658 6.05508C13.4931 5.55572 13.3649 4.96799 13.2665 4.68517C13.2323 4.57911 13.2067 4.48631 13.211 4.48631C13.2195 4.48189 13.3221 4.42886 13.4376 4.367C14.3183 3.89416 14.1174 2.60379 13.1639 2.60379C13.0314 2.60379 12.8347 2.63473 12.7235 2.66566L12.5226 2.73195L12.39 2.39168C11.8599 1.06154 11.8813 1.10131 11.5392 0.743369C11.2014 0.389845 10.8979 0.199825 10.4703 0.0672541C10.2651 0.00538731 9.85891 -0.00345135 6.98572 0.000967979C4.51872 0.00538731 3.68498 0.0186443 3.53961 0.0584154ZM10.2651 0.858265C10.7183 1.09247 10.8124 1.24714 11.3639 2.63031C11.877 3.92067 11.9155 4.08418 11.7744 4.30071C11.6119 4.55702 11.8 4.54818 7.00283 4.54818C2.21846 4.54818 2.41514 4.55702 2.22274 4.30513C2.05171 4.08418 2.04744 4.10185 2.90255 1.96303C3.14199 1.36204 3.31301 1.11015 3.6123 0.920132C3.94579 0.708017 3.93297 0.708017 7.06696 0.716855L10.0171 0.725693L10.2651 0.858265ZM4.26646 6.25835C4.44176 6.36441 4.48024 6.49256 4.48024 6.97866C4.48024 7.76967 4.47169 7.77409 3.17619 7.77409C1.85931 7.77409 1.87214 7.78293 1.87214 6.96982C1.87642 6.18323 1.87214 6.18765 3.16764 6.18323C4.00565 6.18323 4.16385 6.19207 4.26646 6.25835ZM11.877 6.24068C12.0779 6.34231 12.1421 6.55001 12.125 7.06262C12.1079 7.51336 12.1079 7.51778 11.971 7.64594L11.8342 7.77409H10.8081H9.78195L9.64513 7.64594L9.50403 7.51778V6.9875C9.50403 6.51908 9.51259 6.44395 9.58955 6.35999C9.63658 6.30696 9.71354 6.24509 9.76057 6.223C9.90594 6.16555 11.753 6.17439 11.877 6.24068Z" fill="#2F4050"/>
</svg>
