<svg width="11" height="15" viewBox="0 0 11 15" fill="none" xmlns="http://www.w3.org/2000/svg">
<path d="M4.43775 0.0241737C3.86542 0.100911 3.30267 0.283163 2.73354 0.580522C2.27631 0.817129 1.94058 1.06653 1.54091 1.45981C0.118062 2.86027 -0.342364 4.77232 0.25555 6.81545C0.36746 7.20554 0.629646 7.85461 0.866254 8.32143C1.66241 9.91054 3.05967 11.7714 4.55925 13.2518L4.95573 13.6419H5.12839H5.30105L5.82862 13.1079C8.15953 10.7451 9.69748 8.28626 10.1355 6.23033C10.2155 5.85943 10.2219 5.76351 10.2219 5.10485C10.225 4.31189 10.1899 4.08168 9.98524 3.46778C9.41291 1.75716 7.91972 0.449428 6.12278 0.081727C5.76148 0.00818634 4.79586 -0.0269852 4.43775 0.0241737ZM5.71671 2.12806C6.56402 2.30392 7.27385 2.79952 7.72788 3.53812C8.01884 4.00814 8.16272 4.51972 8.16272 5.08566C8.16272 6.76749 6.94132 8.06244 5.28506 8.13278C4.82144 8.15197 4.54327 8.1168 4.12441 7.98251C2.31787 7.40058 1.51213 5.17199 2.52251 3.53812C3.20036 2.43821 4.48252 1.87227 5.71671 2.12806Z" fill="#2F4050"/>
<path d="M4.56882 2.79312C3.72151 2.97217 3.05965 3.59566 2.82304 4.43338C2.46813 5.69316 3.14278 6.98491 4.37378 7.39737C4.60719 7.47731 4.67114 7.4837 5.12517 7.4837C5.5792 7.4837 5.64315 7.47731 5.87656 7.39737C6.21548 7.28546 6.49685 7.116 6.76224 6.86661C7.2962 6.36781 7.55519 5.71874 7.51363 4.99293C7.44648 3.86424 6.72706 3.01054 5.66233 2.78992C5.35858 2.72597 4.86298 2.72917 4.56882 2.79312Z" fill="#2F4050"/>
<path d="M2.30827 12.1327C1.4162 12.5804 1.12843 13.2422 1.54409 13.8753C1.87982 14.3773 2.83584 14.7866 4.07004 14.9592C4.46971 15.0136 5.78065 15.0136 6.18032 14.9592C8.18829 14.6811 9.23065 13.8529 8.7894 12.8873C8.65511 12.5932 8.23306 12.2382 7.811 12.0624L7.69589 12.0144L7.38255 12.3789C6.66953 13.2103 5.74868 14.1215 5.51846 14.2238C5.28505 14.3293 4.93973 14.323 4.70632 14.2078C4.45693 14.0863 3.43056 13.0504 2.67917 12.1615L2.55127 12.0112L2.30827 12.1327Z" fill="#2F4050"/>
</svg>
