<svg width="14" height="12" viewBox="0 0 14 12" fill="none" xmlns="http://www.w3.org/2000/svg">
<path d="M6.73746 0.0612764C6.49953 0.186383 0.113707 4.54723 0.0644806 4.61362C-0.0503821 4.77702 -0.00662488 5.10894 0.15473 5.28766C0.305145 5.45362 0.362577 5.46383 1.09004 5.46383H1.74913L1.7546 8.57362L1.76281 11.6834L1.83118 11.7779C1.8722 11.834 1.95698 11.9004 2.03356 11.9362L2.1703 12H7H11.8297L11.9664 11.9362C12.043 11.9004 12.1278 11.834 12.1688 11.7779L12.2372 11.6834L12.2454 8.57362L12.2509 5.46383H12.91C13.6374 5.46383 13.6949 5.45362 13.8453 5.28766C14.0066 5.10894 14.0504 4.77702 13.9355 4.61362C13.8863 4.54723 7.50047 0.186383 7.26254 0.0612764C7.18323 0.0178719 7.10666 0 7 0C6.89334 0 6.81677 0.0178719 6.73746 0.0612764ZM7.53876 4.42979C9.04292 4.65702 10.2052 5.75745 10.4459 7.17957C10.5006 7.48851 10.4678 8.09872 10.383 8.4C10.0329 9.65362 9.01283 10.5677 7.6755 10.8281C7.28716 10.9047 6.71284 10.9047 6.3245 10.8281C4.98717 10.5677 3.96708 9.65362 3.61702 8.4C3.53224 8.09872 3.49942 7.48851 3.55412 7.17957C3.76744 5.92085 4.69181 4.91489 5.98538 4.53447C6.46124 4.39404 7.04649 4.35574 7.53876 4.42979Z" fill="#2F4050"/>
<path d="M6.12476 5.99971V6.81673H5.24962H4.37447V7.64652V8.47631H5.24962H6.12476V9.29333V10.1104H6.99991H7.87505V9.29333V8.47631H8.7502H9.62534V7.64652V6.81673H8.7502H7.87505V5.99971V5.18269H6.99991H6.12476V5.99971Z" fill="#2F4050"/>
</svg>
