<svg width="26" height="26" viewBox="0 0 26 26" fill="none" xmlns="http://www.w3.org/2000/svg">
<path d="M12.1045 0.107815C11.7958 0.323441 11.7615 0.450855 11.7615 1.47507V2.38658L11.3108 2.44539C9.4146 2.68551 7.58705 3.4598 6.12206 4.64574C5.59291 5.07209 4.68648 6.0277 4.31411 6.55696C3.30479 7.97813 2.68744 9.51201 2.46695 11.1586L2.38366 11.7614H1.49683C0.487511 11.7614 0.296426 11.8104 0.110241 12.1142C-0.0367471 12.3494 -0.0367471 12.7415 0.110241 12.9767C0.296426 13.2805 0.487511 13.3295 1.49683 13.3295H2.38366L2.46695 13.9323C2.68744 15.5789 3.30479 17.1128 4.31411 18.534C4.70608 19.0877 5.60271 20.0286 6.17106 20.4795C7.65564 21.6605 9.4244 22.4054 11.3108 22.6455L11.7615 22.7043V23.6158C11.7615 24.4097 11.7713 24.5518 11.8546 24.6989C11.9918 24.9635 12.2172 25.0909 12.5308 25.0909C12.8492 25.0909 13.0452 24.988 13.1971 24.7479C13.2951 24.5911 13.3049 24.5028 13.3196 23.6305C13.3294 23.116 13.3588 22.6896 13.3784 22.6896C13.4029 22.6896 13.6675 22.6553 13.9712 22.6112C16.4455 22.2682 18.7141 21.0087 20.326 19.0877C21.3354 17.8871 22.1193 16.3189 22.4427 14.8487C22.526 14.4714 22.6828 13.5207 22.6877 13.3639C22.6877 13.3442 23.0894 13.3295 23.5843 13.3295C24.6034 13.3295 24.7945 13.2805 24.9807 12.9767C25.1277 12.7415 25.1277 12.3494 24.9807 12.1142C24.7945 11.8104 24.6034 11.7614 23.5843 11.7614C23.0894 11.7614 22.6877 11.7516 22.6877 11.7418C22.6877 11.7271 22.6632 11.5457 22.6387 11.335C22.477 10.1442 22.183 9.13466 21.6881 8.11044C20.2133 5.06229 17.3128 2.94524 13.9712 2.47969C13.6675 2.43559 13.4029 2.40128 13.3784 2.40128C13.3588 2.40128 13.3294 1.97493 13.3196 1.45547C13.3049 0.588072 13.2951 0.499861 13.1971 0.343042C13.0452 0.102915 12.8492 3.8147e-06 12.5308 3.8147e-06C12.3348 3.8147e-06 12.2221 0.0294056 12.1045 0.107815ZM14.0153 4.04297C15.1912 4.2537 16.5729 4.83196 17.5431 5.52294C18.1457 5.95419 19.1452 6.95391 19.5617 7.54688C21.742 10.6342 21.6832 14.7115 19.4245 17.7205C18.0232 19.5876 15.9556 20.7882 13.5989 21.1018C12.4573 21.2538 11.0756 21.1313 9.94866 20.7686C7.29797 19.9208 5.22054 17.8675 4.3484 15.2359C4.02503 14.2558 3.94664 13.7363 3.95154 12.521C3.95154 11.5947 3.96624 11.3693 4.05933 10.9283C4.4513 9.11016 5.22054 7.67429 6.47974 6.43445C7.87123 5.05739 9.52729 4.24389 11.5165 3.96946C11.9967 3.90576 13.4764 3.94496 14.0153 4.04297Z" fill="#2F4050"/>
<path d="M11.737 7.5665C11.2323 7.64981 10.757 7.80173 10.272 8.04676C9.74283 8.31139 9.50274 8.48291 9.02748 8.93866C8.34154 9.59534 7.87117 10.4186 7.63109 11.3693C7.47921 11.9672 7.47921 13.1237 7.63109 13.7216C8.12105 15.6671 9.59094 17.0736 11.59 17.5049C11.7615 17.5392 12.1779 17.5637 12.5944 17.5637C13.1922 17.5588 13.3783 17.5392 13.7801 17.4313C14.6963 17.1912 15.4362 16.7649 16.1025 16.1033C17.8076 14.4028 18.0624 11.7124 16.7101 9.69825C16.4406 9.2964 15.7938 8.65443 15.397 8.3849C14.3485 7.67921 12.9472 7.36558 11.737 7.5665Z" fill="#2F4050"/>
</svg>
