<svg width="19" height="20" viewBox="0 0 19 20" fill="none" xmlns="http://www.w3.org/2000/svg">
<path d="M8.78622 0.0263195C7.98675 0.108316 7.23647 0.333808 6.5272 0.702794C5.49814 1.23987 4.64537 2.04754 4.03859 3.06431C3.31292 4.28606 3.03823 5.885 3.30062 7.33634C3.65321 9.27967 4.80117 11.3952 6.79369 13.7567C7.26517 14.3184 8.89691 15.9665 9.1019 16.0936C9.2823 16.2043 9.49139 16.2043 9.67178 16.0936C9.85628 15.9788 11.283 14.5521 11.7955 13.9658C13.8618 11.592 15.0508 9.46416 15.4649 7.39374C15.5879 6.77876 15.5961 5.69641 15.4813 5.08963C15.059 2.83061 13.4969 1.03488 11.3281 0.317409C10.5409 0.0550194 9.56929 -0.0556774 8.78622 0.0263195ZM9.82348 3.88427C10.2417 3.95807 10.7131 4.21636 11.0452 4.55255C12.2711 5.7825 11.7791 7.84062 10.1269 8.4187C9.69228 8.5663 9.1265 8.5745 8.69602 8.431C7.01508 7.88572 6.4985 5.803 7.72846 4.55255C8.28603 3.98677 9.04451 3.74488 9.82348 3.88427Z" fill="white"/>
<path d="M3.11998 13.4208C2.95599 13.5766 0 19.3205 0 19.4844C0 19.6566 0.143495 19.8657 0.307488 19.9354C0.52068 20.0215 18.2566 20.0215 18.4698 19.9354C18.6338 19.8657 18.7773 19.6566 18.7773 19.4844C18.7773 19.3205 15.8213 13.5766 15.6573 13.4208L15.5384 13.3101H14.5176H13.4967L13.1769 13.7078C12.402 14.6753 10.8523 16.3071 10.3029 16.7416C9.72893 17.1926 9.04836 17.1926 8.47438 16.7416C7.925 16.3071 6.37526 14.6753 5.60039 13.7078L5.2806 13.3101H4.25974H3.23888L3.11998 13.4208Z" fill="white"/>
</svg>
