<svg width="12" height="16" viewBox="0 0 12 16" fill="none" xmlns="http://www.w3.org/2000/svg">
<path d="M11.7857 6.96429C11.7857 6.88571 11.7214 6.82143 11.6429 6.82143H10.5714C10.4929 6.82143 10.4286 6.88571 10.4286 6.96429C10.4286 9.46964 8.39821 11.5 5.89286 11.5C3.3875 11.5 1.35714 9.46964 1.35714 6.96429C1.35714 6.88571 1.29286 6.82143 1.21429 6.82143H0.142857C0.0642857 6.82143 0 6.88571 0 6.96429C0 9.97679 2.26071 12.4625 5.17857 12.8143V14.6429H2.58393C2.33929 14.6429 2.14286 14.8982 2.14286 15.2143V15.8571C2.14286 15.9357 2.19286 16 2.25357 16H9.53214C9.59286 16 9.64286 15.9357 9.64286 15.8571V15.2143C9.64286 14.8982 9.44643 14.6429 9.20179 14.6429H6.53571V12.8232C9.4875 12.5018 11.7857 10.0018 11.7857 6.96429ZM5.89286 10C7.56964 10 8.92857 8.65714 8.92857 7V3C8.92857 1.34286 7.56964 0 5.89286 0C4.21607 0 2.85714 1.34286 2.85714 3V7C2.85714 8.65714 4.21607 10 5.89286 10ZM4.21429 3C4.21429 2.09643 4.9625 1.35714 5.89286 1.35714C6.82321 1.35714 7.57143 2.09643 7.57143 3V7C7.57143 7.90357 6.82321 8.64286 5.89286 8.64286C4.9625 8.64286 4.21429 7.90357 4.21429 7V3Z" fill="#37A389"/>
</svg>
