<svg width="15" height="20" viewBox="0 0 15 20" fill="none" xmlns="http://www.w3.org/2000/svg">
<path d="M0.633102 0.0653744C0.419548 0.139465 0.184202 0.361736 0.0796038 0.588366C0.00115519 0.758337 -0.00320306 1.09392 0.00115519 10.0458V19.3289L0.101395 19.525C0.158052 19.6383 0.280083 19.7778 0.384681 19.8518C0.541579 19.9608 0.620027 19.9826 0.881522 19.9957C1.14738 20.0087 1.22582 19.9957 1.37836 19.9085C1.4786 19.8518 2.79044 18.8189 4.28532 17.6073C5.91531 16.2912 7.07896 15.3846 7.17484 15.3498C7.39275 15.2713 7.73705 15.3105 7.90703 15.4369C7.97676 15.4892 9.25373 16.5134 10.7399 17.7119C12.2261 18.9061 13.5117 19.9172 13.5945 19.9521C13.6904 19.9913 13.843 20.0087 14.0391 19.9957C14.4008 19.9782 14.6492 19.8213 14.7974 19.525L14.8977 19.3289V10.0458C14.902 1.15929 14.8977 0.753979 14.8192 0.588366C14.719 0.366095 14.4313 0.104599 14.2178 0.0479412C14.1045 0.0130749 11.9689 0 7.42762 0C1.90571 0.00435829 0.776924 0.0130749 0.633102 0.0653744ZM12.8536 2.92875C12.9975 3.00284 13.0759 3.08129 13.15 3.22511C13.32 3.55198 13.2285 3.86141 12.8972 4.08368L12.7534 4.18392H7.44941H2.14542L2.00159 4.08368C1.67037 3.86141 1.57884 3.55198 1.74881 3.22511C1.82291 3.08129 1.90135 3.00284 2.04518 2.92875L2.23694 2.83286H7.44941H12.6619L12.8536 2.92875Z" fill="#BCDED3"/>
</svg>
