<svg width="13" height="15" viewBox="0 0 13 15" fill="none" xmlns="http://www.w3.org/2000/svg">
<path d="M0.81666 0.0384817C0.576797 0.103588 0.35064 0.250932 0.220429 0.429116C-0.0194345 0.761497 -0.00572805 0.216667 0.00455179 7.4948L0.0148316 14.0568L0.10735 14.2521C0.223855 14.5057 0.473998 14.7524 0.734421 14.8826C0.922885 14.9717 0.970857 14.982 1.29981 14.982C1.62191 14.982 1.67674 14.9717 1.83436 14.8894C1.92688 14.8415 2.90347 14.1287 4.00341 13.3063C5.09993 12.4839 6.04567 11.7883 6.1005 11.7575C6.23757 11.689 6.54253 11.689 6.6796 11.7609C6.73785 11.7918 7.70073 12.5011 8.82123 13.3372C10.3529 14.4782 10.9046 14.8757 11.0554 14.9306C11.3398 15.0368 11.7887 15.0196 12.0662 14.8894C12.4329 14.7181 12.6967 14.3686 12.779 13.954C12.8064 13.8032 12.8132 12.0214 12.8064 7.30633C12.7961 1.14528 12.7927 0.857443 12.7344 0.703245C12.6453 0.473662 12.402 0.220093 12.169 0.103588L11.9737 0.00764275L6.474 0.000789642C2.18731 -0.00263691 0.940018 0.00421619 0.81666 0.0384817Z" fill="#2F4050"/>
</svg>
