<svg width="14" height="12" viewBox="0 0 14 12" fill="none" xmlns="http://www.w3.org/2000/svg">
<path d="M6.45596 0.319758C3.89232 1.69254 0.906615 3.33019 0.819076 3.41741C0.587722 3.64674 0.500183 4.00851 0.603354 4.32829C0.712778 4.66745 0.665882 4.63838 3.94859 6.41492C5.94636 7.497 7.00621 8.05257 7.11876 8.07842C7.24381 8.11072 7.3251 8.11072 7.44703 8.08488C7.67526 8.03319 13.6154 4.8128 13.7686 4.65453C13.9374 4.48333 13.9999 4.32183 13.9999 4.05373C13.9999 3.77272 13.9062 3.54661 13.7311 3.3948C13.6279 3.30758 7.89098 0.177634 7.59397 0.0452013C7.53769 0.0193605 7.39075 -2.00272e-05 7.27195 -2.00272e-05C7.06248 -2.00272e-05 7.04685 0.00644016 6.45596 0.319758Z" fill="#2F4050"/>
<path d="M0.556547 6.57308V8.03953L0.472134 8.08798C0.300183 8.17843 0.168874 8.38515 0.131357 8.62095C0.115725 8.71462 0.131357 8.81475 0.178253 8.97303L0.247034 9.18944L0.118852 9.98081C-0.0374678 10.9305 -0.0374678 11.1307 0.106346 11.3439C0.390848 11.7638 0.872312 11.8672 1.285 11.5959C1.4632 11.4796 1.57888 11.3051 1.62577 11.0758C1.65704 10.9175 1.64766 10.8174 1.51635 10.0228L1.37254 9.14422L1.43506 9.02471C1.582 8.72431 1.46633 8.27856 1.19433 8.10413L1.08803 8.0363V6.7152V5.3941L0.925461 5.31011C0.834796 5.26166 0.722246 5.19706 0.67535 5.16476C0.63158 5.12923 0.584684 5.10339 0.575305 5.10339C0.565926 5.10339 0.556547 5.76556 0.556547 6.57308Z" fill="#2F4050"/>
<path d="M2.27608 7.5651C2.27608 9.26412 2.27608 9.26735 2.50743 9.49992C2.60435 9.60005 3.17648 9.92306 4.82409 10.8146L7.01256 12H7.29394H7.57531L9.76379 10.8113C11.0237 10.1266 11.996 9.57744 12.0554 9.5193C12.1117 9.46439 12.1867 9.35133 12.2274 9.27058C12.2962 9.12846 12.2962 9.10585 12.3055 7.5974C12.3118 6.46687 12.3055 6.0728 12.2774 6.0728C12.2586 6.0728 11.2551 6.60899 10.0514 7.26147C8.84463 7.91395 7.79729 8.47275 7.72538 8.50505C7.51278 8.59226 7.22828 8.60841 6.99693 8.54704C6.85312 8.50828 6.1403 8.14005 4.5771 7.29054C3.35781 6.62837 2.34173 6.08572 2.31985 6.07926C2.28233 6.06957 2.27608 6.32152 2.27608 7.5651Z" fill="#2F4050"/>
</svg>
